# xmcd
# 
# Track frame offsets:
#	150
#	16308
#	29958
#	45840
#	63637
#	75861
#	91863
#	113859
#	136427
#	150670
#	165261
#	178109
#
# Disc length: 2543 seconds
#
# Revision: 1
# Processed by: cddbd v1.4PL0 Copyright (c) Steve Scherf et al.
# Submitted via: Audio-CD-Archiv 2.10.438
#
DISCID=8c09ed0c
DTITLE=Shirley Bassey - This Is My Life
DYEAR=1900
DGENRE=blues
TTITLE0=Never, Never, Never
TTITLE1=If
TTITLE2=Light My Fire
TTITLE3=Jesse
TTITLE4=Diamonds Are Forever
TTITLE5=Living
TTITLE6=This Is My Life
TTITLE7=Alone Again
TTITLE8=Bless The Beasts And Children
TTITLE9=Spinning Wheel
TTITLE10=It's Impossible
TTITLE11=Goldfinger
EXTD=
EXTT0=
EXTT1=
EXTT2=
EXTT3=
EXTT4=
EXTT5=
EXTT6=
EXTT7=
EXTT8=
EXTT9=
EXTT10=
EXTT11=
PLAYORDER=
